<svg width="85" height="85" viewBox="0 0 85 85" fill="none" xmlns="http://www.w3.org/2000/svg">
<path d="M74.3744 28.3338C76.253 28.3338 78.0546 29.08 79.383 30.4084C80.7114 31.7368 81.4577 33.5385 81.4577 35.4171V49.5838C81.4577 51.4624 80.7114 53.264 79.383 54.5924C78.0546 55.9208 76.253 56.6671 74.3744 56.6671H70.6131C69.7497 63.5142 66.4172 69.8109 61.241 74.3754C56.0648 78.94 49.4007 81.4586 42.4994 81.4588V74.3754C48.1352 74.3754 53.5402 72.1366 57.5254 68.1515C61.5105 64.1663 63.7494 58.7613 63.7494 53.1254V31.8754C63.7494 26.2396 61.5105 20.8346 57.5254 16.8494C53.5402 12.8643 48.1352 10.6254 42.4994 10.6254C36.8635 10.6254 31.4585 12.8643 27.4733 16.8494C23.4882 20.8346 21.2494 26.2396 21.2494 31.8754V56.6671H10.6243C8.74573 56.6671 6.94406 55.9208 5.61568 54.5924C4.28729 53.264 3.54102 51.4624 3.54102 49.5838V35.4171C3.54102 33.5385 4.28729 31.7368 5.61568 30.4084C6.94406 29.08 8.74573 28.3338 10.6243 28.3338H14.3856C15.2499 21.4873 18.5828 15.1916 23.7589 10.6278C28.935 6.06403 35.5986 3.5459 42.4994 3.5459C49.4001 3.5459 56.0637 6.06403 61.2398 10.6278C66.4159 15.1916 69.7488 21.4873 70.6131 28.3338H74.3744ZM27.4827 55.9056L31.2369 49.899C34.6123 52.0135 38.5163 53.1319 42.4994 53.1254C46.4824 53.1319 50.3864 52.0135 53.7619 49.899L57.516 55.9056C53.0155 58.7253 47.8102 60.2169 42.4994 60.2088C37.1884 60.2171 31.9831 58.7255 27.4827 55.9056Z" fill="#75B8EE"/>
</svg>
