<svg width="49" height="49" viewBox="0 0 49 49" fill="none" xmlns="http://www.w3.org/2000/svg">
<path d="M45.9756 24.6994C45.9756 22.9563 45.8312 21.6843 45.5189 20.3652H25.207V28.2326H37.1296C36.8893 30.1878 35.5913 33.1322 32.7067 35.1108L32.6663 35.3742L39.0885 40.2496L39.5335 40.2931C43.6198 36.5949 45.9756 31.1535 45.9756 24.6994Z" fill="#4285F4"/>
<path d="M25.2071 45.4281C31.0482 45.4281 35.9518 43.5435 39.5335 40.2929L32.7068 35.1106C30.88 36.359 28.4281 37.2306 25.2071 37.2306C19.4862 37.2306 14.6307 33.5325 12.8998 28.4209L12.6461 28.442L5.96819 33.5065L5.88086 33.7444C9.43839 40.6697 16.7458 45.4281 25.2071 45.4281Z" fill="#34A853"/>
<path d="M12.9007 29.0078C12.444 27.6887 12.1797 26.2753 12.1797 24.8149C12.1797 23.3544 12.444 21.9411 12.8767 20.622L12.8646 20.3411L6.10301 15.1953L5.88178 15.2984C4.41555 18.1722 3.57422 21.3994 3.57422 24.8149C3.57422 28.2304 4.41555 31.4574 5.88178 34.3312L12.9007 29.0078Z" fill="#FBBC05"/>
<path d="M25.2073 11.2255C29.2696 11.2255 32.0098 12.9451 33.5723 14.3821L39.6779 8.54028C35.9281 5.12476 31.0483 3.02832 25.2073 3.02832C16.7459 3.02832 9.43841 7.78647 5.88086 14.7117L12.8758 20.0353C14.6307 14.9238 19.4863 11.2255 25.2073 11.2255Z" fill="#EB4335"/>
</svg>
