<svg width="66" height="75" viewBox="0 0 66 75" fill="none" xmlns="http://www.w3.org/2000/svg">
<path d="M20.1673 34.667C16.4101 34.667 12.8067 33.1744 10.15 30.5177C7.49321 27.8609 6.00065 24.2576 6.00065 20.5003V9.16699C6.00065 8.41555 6.29916 7.69488 6.83052 7.16352C7.36187 6.63217 8.08254 6.33366 8.83398 6.33366H11.6673C12.4188 6.33366 13.1394 6.03515 13.6708 5.5038C14.2021 4.97244 14.5007 4.25177 14.5007 3.50033C14.5007 2.74888 14.2021 2.02821 13.6708 1.49686C13.1394 0.965503 12.4188 0.666992 11.6673 0.666992H8.83398C6.57964 0.666992 4.41764 1.56253 2.82358 3.15658C1.22952 4.75064 0.333984 6.91265 0.333984 9.16699V20.5003C0.337626 23.7012 1.11817 26.8535 2.60858 29.6862C4.099 32.519 6.25473 34.9477 8.89065 36.7637C11.4232 38.9964 13.477 41.7192 14.9282 44.7676C16.3793 47.816 17.1977 51.1269 17.334 54.5003C17.334 59.7605 19.4236 64.8051 23.143 68.5246C26.8625 72.2441 31.9072 74.3337 37.1673 74.3337C42.4274 74.3337 47.4721 72.2441 51.1916 68.5246C54.9111 64.8051 57.0007 59.7605 57.0007 54.5003V51.2703C59.6715 50.5807 61.9992 48.9407 63.5474 46.6576C65.0955 44.3746 65.7579 41.6053 65.4103 38.8688C65.0627 36.1324 63.7291 33.6166 61.6593 31.7931C59.5895 29.9696 56.9258 28.9635 54.1673 28.9635C51.4089 28.9635 48.7451 29.9696 46.6753 31.7931C44.6056 33.6166 43.2719 36.1324 42.9243 38.8688C42.5767 41.6053 43.2391 44.3746 44.7873 46.6576C46.3354 48.9407 48.6631 50.5807 51.334 51.2703V54.5003C51.334 58.2576 49.8414 61.8609 47.1847 64.5177C44.5279 67.1744 40.9246 68.667 37.1673 68.667C33.4101 68.667 29.8067 67.1744 27.15 64.5177C24.4932 61.8609 23.0007 58.2576 23.0007 54.5003C23.1441 51.1227 23.9713 47.8093 25.4324 44.7606C26.8934 41.7119 28.9578 38.9914 31.5007 36.7637C34.1261 34.9414 36.2708 32.5099 37.7511 29.6775C39.2315 26.8452 40.0033 23.6962 40.0007 20.5003V9.16699C40.0007 6.91265 39.1051 4.75064 37.5111 3.15658C35.917 1.56253 33.755 0.666992 31.5007 0.666992H28.6673C27.9159 0.666992 27.1952 0.965503 26.6639 1.49686C26.1325 2.02821 25.834 2.74888 25.834 3.50033C25.834 4.25177 26.1325 4.97244 26.6639 5.5038C27.1952 6.03515 27.9159 6.33366 28.6673 6.33366H31.5007C32.2521 6.33366 32.9728 6.63217 33.5041 7.16352C34.0355 7.69488 34.334 8.41555 34.334 9.16699V20.5003C34.334 22.3607 33.9676 24.2029 33.2556 25.9217C32.5437 27.6405 31.5002 29.2022 30.1847 30.5177C28.8692 31.8332 27.3074 32.8767 25.5887 33.5886C23.8699 34.3006 22.0277 34.667 20.1673 34.667ZM54.1673 46.0003C52.6644 46.0003 51.2231 45.4033 50.1604 44.3406C49.0977 43.2779 48.5007 41.8366 48.5007 40.3337C48.5007 38.8308 49.0977 37.3894 50.1604 36.3267C51.2231 35.264 52.6644 34.667 54.1673 34.667C55.6702 34.667 57.1116 35.264 58.1743 36.3267C59.237 37.3894 59.834 38.8308 59.834 40.3337C59.834 41.8366 59.237 43.2779 58.1743 44.3406C57.1116 45.4033 55.6702 46.0003 54.1673 46.0003Z" fill="#FF370B"/>
</svg>
