<svg width="69" height="69" viewBox="0 0 69 69" fill="none" xmlns="http://www.w3.org/2000/svg">
<circle cx="34.5" cy="34.5" r="34.5" fill="#A7E1EE"/>
<rect x="9" y="10" width="50" height="50" rx="25" fill="#1B75BC"/>
<path d="M29.667 42.0459C29.3626 42.0459 29.1191 41.9352 28.9365 41.7139C28.7594 41.498 28.6709 41.2103 28.6709 40.8506V29.1797C28.6709 28.82 28.7594 28.5322 28.9365 28.3164C29.1191 28.1006 29.3626 27.9927 29.667 27.9927C29.833 27.9927 29.9907 28.0231 30.1401 28.084C30.2896 28.1393 30.4473 28.214 30.6133 28.3081L40.292 33.9111C40.6406 34.1104 40.8813 34.2902 41.0142 34.4507C41.1525 34.6056 41.2217 34.7938 41.2217 35.0151C41.2217 35.2365 41.1525 35.4274 41.0142 35.5879C40.8813 35.7428 40.6406 35.9227 40.292 36.1274L30.6133 41.7222C30.4473 41.8218 30.2896 41.8993 30.1401 41.9546C29.9907 42.0155 29.833 42.0459 29.667 42.0459Z" fill="white"/>
</svg>
